<svg width="26" height="24" viewBox="0 0 26 24" fill="none" xmlns="http://www.w3.org/2000/svg">
<path d="M0.213338 18.44C0.291116 18.3156 0.415561 18.3078 0.586672 18.4167C4.43787 20.6622 8.82206 21.8308 13.28 21.8C16.3692 21.7925 19.4304 21.215 22.31 20.0967C22.3878 20.0656 22.5006 20.0189 22.6483 19.9567C22.7961 19.8944 22.9011 19.8478 22.9633 19.8167C23.0555 19.7664 23.1633 19.7529 23.265 19.7789C23.3668 19.8048 23.4549 19.8684 23.5117 19.9567C23.6439 20.1433 23.6011 20.3144 23.3833 20.47C23.1033 20.6722 22.7456 20.9056 22.31 21.17C20.9094 21.9893 19.4016 22.6097 17.83 23.0133C16.255 23.439 14.6315 23.6586 13 23.6667C10.6459 23.6801 8.31053 23.2487 6.11667 22.395C3.97923 21.5625 2.01066 20.349 0.306672 18.8133C0.26755 18.7872 0.234706 18.7527 0.210499 18.7124C0.186292 18.672 0.171325 18.6268 0.166672 18.58C0.167837 18.5297 0.184096 18.4809 0.213338 18.44ZM7.23667 11.79C7.20869 10.8121 7.48598 9.84976 8.03001 9.03667C8.57183 8.26402 9.32539 7.66441 10.2 7.31001C11.1945 6.91301 12.2386 6.65394 13.3033 6.54001C13.7233 6.49334 14.4078 6.43112 15.3567 6.35334V5.95667C15.4156 5.27105 15.3034 4.58152 15.03 3.95001C14.8535 3.7126 14.6196 3.52386 14.3503 3.40144C14.0809 3.27902 13.785 3.22692 13.49 3.25001H13.3033C12.8226 3.28455 12.3615 3.45443 11.9733 3.74001C11.5962 4.02599 11.3384 4.44167 11.25 4.90667C11.2408 5.03458 11.1903 5.15605 11.1062 5.25282C11.022 5.34959 10.9087 5.41645 10.7833 5.44334L8.10001 5.11667C7.83556 5.05445 7.70334 4.91445 7.70334 4.69667C7.70451 4.64149 7.71234 4.58664 7.72667 4.53334C7.81702 3.91195 8.0372 3.31654 8.37288 2.78588C8.70857 2.25522 9.15223 1.80119 9.675 1.45334C10.7647 0.76703 12.0164 0.380671 13.3033 0.333339H13.8867C15.3964 0.242596 16.8833 0.735448 18.04 1.71001C18.1962 1.86627 18.3405 2.03396 18.4717 2.21167C18.5867 2.3643 18.6919 2.52406 18.7867 2.69001C18.883 2.88213 18.9536 3.08611 18.9967 3.29667C19.0589 3.56112 19.1056 3.74389 19.1367 3.84501C19.1815 4.05995 19.2049 4.27879 19.2067 4.49834C19.2222 4.83278 19.23 5.03112 19.23 5.09334V10.74C19.2255 11.1167 19.2847 11.4914 19.405 11.8483C19.4837 12.104 19.5976 12.3474 19.7433 12.5717C19.8522 12.7194 20.0311 12.9567 20.28 13.2833C20.362 13.3915 20.4106 13.5213 20.42 13.6567C20.4178 13.7222 20.3996 13.7862 20.3671 13.8431C20.3345 13.9 20.2886 13.9481 20.2333 13.9833C18.9422 15.1033 18.2422 15.71 18.1333 15.8033C18.0358 15.8727 17.921 15.9137 17.8016 15.922C17.6822 15.9302 17.5628 15.9053 17.4567 15.85C17.2389 15.6633 17.0483 15.4844 16.885 15.3133C16.7217 15.1422 16.605 15.0178 16.535 14.94C16.4141 14.7946 16.3011 14.6427 16.1967 14.485C16.0411 14.2594 15.9322 14.1078 15.87 14.03C15.195 14.8472 14.3065 15.461 13.3033 15.8033C12.6642 15.9727 12.0044 16.0513 11.3433 16.0367C10.8025 16.0565 10.2631 15.9687 9.75637 15.7785C9.24969 15.5882 8.78582 15.2992 8.39167 14.9283C7.99175 14.5141 7.68251 14.0211 7.48365 13.4808C7.28479 12.9405 7.20068 12.3646 7.23667 11.79ZM11.25 11.3233C11.2236 11.8481 11.3849 12.3651 11.705 12.7817C11.8531 12.9614 12.0407 13.1044 12.2532 13.1995C12.4657 13.2946 12.6974 13.3393 12.93 13.33C12.9967 13.3278 13.063 13.32 13.1283 13.3067C13.186 13.2946 13.2445 13.2868 13.3033 13.2833C13.6317 13.1944 13.9371 13.0359 14.1988 12.8184C14.4605 12.601 14.6724 12.3299 14.82 12.0233C14.994 11.7206 15.1236 11.3945 15.205 11.055C15.2793 10.7763 15.3261 10.4911 15.345 10.2033C15.3528 9.98556 15.3567 9.62778 15.3567 9.13V8.54667C14.6672 8.52536 13.9777 8.58804 13.3033 8.73334C12.7047 8.84152 12.1659 9.16418 11.788 9.64091C11.41 10.1176 11.2188 10.7158 11.25 11.3233ZM21.05 18.8367C21.0864 18.7674 21.1336 18.7043 21.19 18.65C21.5301 18.4087 21.9088 18.2272 22.31 18.1133C22.8738 17.9618 23.4532 17.8757 24.0367 17.8567C24.1847 17.8407 24.3344 17.8486 24.48 17.88C25.18 17.9422 25.6 18.0589 25.74 18.23C25.8107 18.3582 25.8431 18.504 25.8333 18.65V18.8133C25.807 19.4771 25.6567 20.13 25.39 20.7383C25.1304 21.4257 24.7057 22.0387 24.1533 22.5233C24.0957 22.577 24.0218 22.6099 23.9433 22.6167C23.9108 22.6163 23.8789 22.6083 23.85 22.5933C23.7567 22.5467 23.7333 22.4611 23.78 22.3367C24.2229 21.4502 24.5147 20.4959 24.6433 19.5133C24.6542 19.382 24.6214 19.2508 24.55 19.14C24.3945 18.9533 23.9589 18.86 23.2433 18.86C22.9789 18.86 22.6678 18.8756 22.31 18.9067C21.9211 18.9533 21.5633 19 21.2367 19.0467C21.1708 19.0545 21.1044 19.0379 21.05 19C21.036 18.9895 21.026 18.9745 21.0217 18.9575C21.0175 18.9405 21.0192 18.9225 21.0267 18.9067C21.0295 18.882 21.0374 18.8581 21.05 18.8367Z" fill="white"/>
</svg>
