<svg width="21" height="20" viewBox="0 0 21 20" fill="none" xmlns="http://www.w3.org/2000/svg">
<path d="M10.801 0C8.82319 0 6.88979 0.58649 5.2453 1.6853C3.60081 2.78412 2.31908 4.3459 1.5622 6.17317C0.805328 8.00043 0.607294 10.0111 0.993147 11.9509C1.379 13.8907 2.33141 15.6725 3.72993 17.0711C5.12846 18.4696 6.91029 19.422 8.8501 19.8079C10.7899 20.1937 12.8006 19.9957 14.6278 19.2388C16.4551 18.4819 18.0169 17.2002 19.1157 15.5557C20.2145 13.9112 20.801 11.9778 20.801 10C20.801 8.68678 20.5423 7.38642 20.0398 6.17317C19.5372 4.95991 18.8007 3.85752 17.8721 2.92893C16.9435 2.00035 15.8411 1.26375 14.6278 0.761205C13.4146 0.258658 12.1142 0 10.801 0V0ZM10.801 2C12.8557 1.99918 14.8308 2.79493 16.311 4.22C14.783 5.1162 13.1639 5.847 11.481 6.4C10.6435 4.95683 9.68327 3.58844 8.611 2.31C9.32296 2.105 10.0601 2.00065 10.801 2V2ZM6.691 3.15C7.73868 4.34851 8.67897 5.6368 9.501 7C7.5381 7.4874 5.5235 7.73587 3.501 7.74H3.141C3.7082 5.81964 4.97494 4.18181 6.691 3.15V3.15ZM4.801 15.31C3.49975 13.8488 2.78708 11.9566 2.801 10C2.801 9.9 2.801 9.8 2.801 9.71H3.481C5.84837 9.68884 8.20239 9.35255 10.481 8.71C10.801 9.32 11.101 9.95 11.391 10.6C9.83249 11.1494 8.38101 11.9648 7.101 13.01L6.801 13.25C6.08812 13.8902 5.41989 14.5785 4.801 15.31V15.31ZM10.801 18C9.20709 18.0035 7.6492 17.5261 6.331 16.63C6.81784 16.0716 7.33884 15.5439 7.891 15.05L8.211 14.78C9.39416 13.7849 10.75 13.0155 12.211 12.51C12.8123 14.136 13.2805 15.8082 13.611 17.51C12.7108 17.8387 11.7593 18.0046 10.801 18V18ZM15.431 16.51C15.1038 14.9966 14.6762 13.5066 14.151 12.05H14.491C14.5304 12.0403 14.5716 12.0403 14.611 12.05H14.721H14.821H15.301C16.3534 12.053 17.3978 12.2322 18.391 12.58C17.8453 14.1704 16.8089 15.5464 15.431 16.51V16.51ZM15.301 10C15.091 10 14.881 10 14.681 10C14.5515 9.98369 14.4205 9.98369 14.291 10C14.0192 10.0167 13.7487 10.0501 13.481 10.1H13.381C13.091 9.43 12.791 8.78 12.461 8.1C14.2516 7.48506 15.9714 6.68049 17.591 5.7C18.3944 6.98937 18.8141 8.48085 18.801 10C18.801 10.17 18.801 10.34 18.801 10.51C17.6677 10.1602 16.487 9.98818 15.301 10V10Z" fill="#333"/>
</svg>
