<svg width="25" height="24" viewBox="0 0 25 24" fill="none" xmlns="http://www.w3.org/2000/svg">
<path d="M12.411 7C11.4221 7 10.4554 7.29324 9.63316 7.84265C8.81091 8.39206 8.17005 9.17295 7.79161 10.0866C7.41317 11.0002 7.31416 12.0055 7.50708 12.9755C7.70001 13.9454 8.17621 14.8363 8.87548 15.5355C9.57474 16.2348 10.4657 16.711 11.4356 16.9039C12.4055 17.0969 13.4108 16.9978 14.3244 16.6194C15.2381 16.241 16.019 15.6001 16.5684 14.7779C17.1178 13.9556 17.411 12.9889 17.411 12C17.411 10.6739 16.8842 9.40215 15.9465 8.46447C15.0089 7.52678 13.7371 7 12.411 7V7ZM12.411 15C11.8177 15 11.2376 14.8241 10.7443 14.4944C10.251 14.1648 9.86643 13.6962 9.63937 13.1481C9.41231 12.5999 9.3529 11.9967 9.46865 11.4147C9.58441 10.8328 9.87013 10.2982 10.2897 9.87868C10.7092 9.45912 11.2438 9.1734 11.8257 9.05764C12.4077 8.94189 13.0109 9.0013 13.5591 9.22836C14.1072 9.45542 14.5758 9.83994 14.9054 10.3333C15.2351 10.8266 15.411 11.4067 15.411 12C15.411 12.7956 15.0949 13.5587 14.5323 14.1213C13.9697 14.6839 13.2067 15 12.411 15ZM17.411 6C17.2132 6 17.0199 6.05865 16.8554 6.16853C16.691 6.27841 16.5628 6.43459 16.4871 6.61732C16.4114 6.80004 16.3916 7.00111 16.4302 7.19509C16.4688 7.38907 16.5641 7.56725 16.7039 7.70711C16.8438 7.84696 17.0219 7.9422 17.2159 7.98079C17.4099 8.01937 17.611 7.99957 17.7937 7.92388C17.9764 7.84819 18.1326 7.72002 18.2425 7.55557C18.3524 7.39112 18.411 7.19778 18.411 7C18.411 6.73478 18.3057 6.48043 18.1181 6.29289C17.9306 6.10536 17.6762 6 17.411 6ZM22.351 8.24C22.3344 7.38542 22.1721 6.53995 21.871 5.74C21.5918 5.01207 21.1626 4.35099 20.6113 3.7997C20.06 3.2484 19.3989 2.81922 18.671 2.54C17.8711 2.2389 17.0256 2.07657 16.171 2.06C15.201 2 14.881 2 12.411 2C9.94101 2 9.62101 2 8.65101 2.06C7.79643 2.07657 6.95096 2.2389 6.15101 2.54C5.42308 2.81922 4.762 3.2484 4.21071 3.7997C3.65941 4.35099 3.23023 5.01207 2.95101 5.74C2.64991 6.53995 2.48758 7.38542 2.47101 8.24C2.41101 9.22 2.41101 9.54 2.41101 12C2.41101 14.46 2.41101 14.78 2.47101 15.76C2.48758 16.6146 2.64991 17.4601 2.95101 18.26C3.23023 18.9879 3.65941 19.649 4.21071 20.2003C4.762 20.7516 5.42308 21.1808 6.15101 21.46C6.95096 21.7611 7.79643 21.9234 8.65101 21.94C9.65101 21.94 9.94101 22 12.411 22C14.881 22 15.201 22 16.171 21.94C17.0256 21.9234 17.8711 21.7611 18.671 21.46C19.3989 21.1808 20.06 20.7516 20.6113 20.2003C21.1626 19.649 21.5918 18.9879 21.871 18.26C22.1721 17.4601 22.3344 16.6146 22.351 15.76C22.351 14.76 22.411 14.46 22.411 12C22.411 9.54 22.411 9.22 22.351 8.24ZM20.351 15.67C20.3335 16.3046 20.2153 16.9324 20.001 17.53C19.8238 18.0023 19.5437 18.4293 19.181 18.78C18.8324 19.1428 18.4046 19.4201 17.931 19.59C17.332 19.8131 16.7 19.9348 16.061 19.95C15.121 19.95 14.831 20 12.401 20C9.97101 20 9.69101 20 8.75101 20C8.11303 19.9835 7.48176 19.8654 6.88101 19.65C6.40867 19.4728 5.98168 19.1927 5.63101 18.83C5.26817 18.4814 4.99093 18.0536 4.82101 17.58C4.59882 16.9842 4.47716 16.3557 4.46101 15.72C4.46101 14.72 4.46101 14.47 4.46101 12.05C4.46101 9.63 4.46101 9.34 4.46101 8.38C4.47825 7.74121 4.59985 7.10954 4.82101 6.51C4.99357 6.04063 5.27054 5.61662 5.63101 5.27C5.97959 4.90715 6.40742 4.62992 6.88101 4.46C7.48 4.2369 8.112 4.11523 8.75101 4.1C9.69101 4 9.98101 4 12.411 4C14.841 4 15.131 4 16.071 4C16.7132 4.01633 17.3483 4.13794 17.951 4.36C18.4204 4.53256 18.8444 4.80953 19.191 5.17C19.5539 5.51858 19.8311 5.94641 20.001 6.42C20.2458 7.02856 20.3845 7.67458 20.411 8.33C20.411 9.33 20.461 9.58 20.461 12C20.461 14.42 20.411 14.71 20.411 15.67H20.351Z" fill="#333"/>
</svg>
