<svg width="11" height="18" viewBox="0 0 11 18" fill="none" xmlns="http://www.w3.org/2000/svg">
<path d="M0.493024 10.4403L7.55969 17.507C7.71463 17.6632 7.89896 17.7872 8.10206 17.8718C8.30516 17.9564 8.523 18 8.74302 18C8.96304 18 9.18089 17.9564 9.38398 17.8718C9.58708 17.7872 9.77142 17.6632 9.92636 17.507C10.2368 17.1947 10.411 16.7723 10.411 16.332C10.411 15.8917 10.2368 15.4693 9.92636 15.157L4.02636 9.257L9.92636 3.357C10.2368 3.04473 10.411 2.62231 10.411 2.182C10.411 1.74169 10.2368 1.31927 9.92636 1.007C9.77062 0.852534 9.58593 0.730327 9.38287 0.647386C9.17981 0.564445 8.96237 0.522404 8.74302 0.523672C8.52368 0.522404 8.30624 0.564444 8.10318 0.647385C7.90012 0.730326 7.71542 0.852534 7.55969 1.007L0.493025 8.07367C0.336811 8.22861 0.212821 8.41294 0.128206 8.61604C0.0435916 8.81914 2.74168e-05 9.03698 2.73975e-05 9.257C2.73783e-05 9.47702 0.0435915 9.69487 0.128206 9.89796C0.21282 10.1011 0.33681 10.2854 0.493024 10.4403Z" fill="black"/>
</svg>
