<svg width="23" height="22" viewBox="0 0 23 22" fill="none" xmlns="http://www.w3.org/2000/svg">
<path d="M16.7123 7.46278C15.8171 7.46239 14.9357 7.68384 14.1469 8.10731C14.0749 7.91773 13.947 7.75454 13.7801 7.63942C13.6131 7.52429 13.4151 7.46269 13.2123 7.46278H9.21234C9.081 7.4627 8.95093 7.48852 8.82957 7.53874C8.70821 7.58897 8.59794 7.66263 8.50507 7.7555C8.4122 7.84838 8.33854 7.95865 8.28831 8.08C8.23808 8.20136 8.21227 8.33143 8.21234 8.46278V20.4628C8.21227 20.5941 8.23808 20.7242 8.28831 20.8455C8.33854 20.9669 8.41219 21.0772 8.50507 21.1701C8.59794 21.2629 8.70821 21.3366 8.82957 21.3868C8.95093 21.437 9.081 21.4629 9.21234 21.4628H13.2123C13.3437 21.4629 13.4738 21.437 13.5951 21.3868C13.7165 21.3366 13.8267 21.2629 13.9196 21.1701C14.0125 21.0772 14.0861 20.9669 14.1364 20.8455C14.1866 20.7242 14.2124 20.5941 14.2123 20.4628V14.9628C14.2123 14.6976 14.3177 14.4432 14.5052 14.2557C14.6928 14.0681 14.9471 13.9628 15.2123 13.9628C15.4776 13.9628 15.7319 14.0681 15.9194 14.2557C16.107 14.4432 16.2123 14.6976 16.2123 14.9628V20.4628C16.2123 20.5941 16.2381 20.7242 16.2883 20.8455C16.3385 20.9669 16.4122 21.0772 16.5051 21.1701C16.5979 21.2629 16.7082 21.3366 16.8296 21.3868C16.9509 21.437 17.081 21.4629 17.2123 21.4628H21.2123C21.3437 21.4629 21.4738 21.437 21.5951 21.3868C21.7165 21.3366 21.8267 21.2629 21.9196 21.1701C22.0125 21.0772 22.0861 20.9669 22.1364 20.8455C22.1866 20.7242 22.2124 20.5941 22.2123 20.4628V12.9628C22.2105 11.5046 21.6305 10.1067 20.5994 9.07569C19.5684 8.04463 18.1705 7.46459 16.7123 7.46278V7.46278ZM20.2123 19.4628H18.2123V14.9628C18.2123 14.1671 17.8963 13.4041 17.3337 12.8415C16.7711 12.2788 16.008 11.9628 15.2123 11.9628C14.4167 11.9628 13.6536 12.2788 13.091 12.8415C12.5284 13.4041 12.2123 14.1671 12.2123 14.9628V19.4628H10.2123V9.46278H12.2123V10.1659C12.2125 10.3731 12.2769 10.5752 12.3968 10.7442C12.5167 10.9132 12.6861 11.0408 12.8816 11.1094C13.0771 11.178 13.2891 11.1842 13.4883 11.1271C13.6875 11.0701 13.864 10.9526 13.9936 10.7909C14.4424 10.2209 15.0579 9.80534 15.7543 9.60215C16.4507 9.39895 17.1932 9.4183 17.8781 9.65749C18.5629 9.89667 19.156 10.3438 19.5745 10.9363C19.993 11.5289 20.216 12.2373 20.2123 12.9628V19.4628ZM6.21234 7.46278H2.21234C2.081 7.4627 1.95093 7.48852 1.82957 7.53874C1.70821 7.58897 1.59794 7.66263 1.50507 7.7555C1.4122 7.84838 1.33854 7.95865 1.28831 8.08C1.23808 8.20136 1.21227 8.33143 1.21234 8.46278V20.4628C1.21227 20.5941 1.23808 20.7242 1.28831 20.8455C1.33854 20.9669 1.41219 21.0772 1.50507 21.1701C1.59794 21.2629 1.70821 21.3366 1.82957 21.3868C1.95093 21.437 2.081 21.4629 2.21234 21.4628H6.21234C6.34369 21.4629 6.47376 21.437 6.59512 21.3868C6.71648 21.3366 6.82675 21.2629 6.91962 21.1701C7.01249 21.0772 7.08615 20.9669 7.13638 20.8455C7.18661 20.7242 7.21242 20.5941 7.21234 20.4628V8.46278C7.21242 8.33143 7.1866 8.20136 7.13637 8.08C7.08615 7.95865 7.01249 7.84838 6.91962 7.7555C6.82674 7.66263 6.71647 7.58897 6.59511 7.53874C6.47376 7.48852 6.34369 7.4627 6.21234 7.46278V7.46278ZM5.21234 19.4628H3.21234V9.46278H5.21234V19.4628ZM4.22699 0.00577646C3.78935 -0.0204201 3.35096 0.0426737 2.93847 0.191221C2.52598 0.339768 2.14801 0.570665 1.82756 0.869869C1.50711 1.16907 1.25086 1.53033 1.0744 1.93168C0.897944 2.33302 0.804966 2.76606 0.801119 3.20447C0.797273 3.64287 0.88264 4.07748 1.05203 4.48186C1.22142 4.88624 1.47128 5.25194 1.78644 5.55672C2.1016 5.8615 2.47545 6.09899 2.88527 6.25475C3.29509 6.41051 3.73231 6.48129 4.17034 6.46278H4.19866C4.63746 6.48884 5.07696 6.42516 5.49032 6.27563C5.90367 6.1261 6.2822 5.89385 6.60276 5.59309C6.92333 5.29232 7.1792 4.92935 7.35475 4.52636C7.5303 4.12336 7.62183 3.6888 7.62376 3.24924C7.62569 2.80967 7.53797 2.37433 7.36596 1.96981C7.19396 1.56529 6.94128 1.20009 6.62336 0.896522C6.30545 0.592957 5.92897 0.357401 5.51695 0.204248C5.10492 0.0510959 4.66599 -0.0164369 4.22698 0.00577646H4.22699ZM4.19867 4.46278H4.17034C3.99741 4.48378 3.82199 4.46756 3.65583 4.41521C3.48968 4.36285 3.33665 4.27558 3.20699 4.15924C3.07733 4.0429 2.97404 3.90018 2.90406 3.74065C2.83407 3.58112 2.79901 3.40848 2.80121 3.23429C2.80121 2.48819 3.36078 2.00577 4.22699 2.00577C4.40169 1.98248 4.57935 1.9969 4.74801 2.04805C4.91666 2.09921 5.0724 2.18591 5.20473 2.30232C5.33705 2.41873 5.4429 2.56215 5.51513 2.72291C5.58736 2.88367 5.62431 3.05804 5.62347 3.23429C5.62347 3.98038 5.0639 4.46278 4.19867 4.46278Z" fill="#333"/>
</svg>
