<svg width="11" height="18" viewBox="0 0 11 18" fill="none" xmlns="http://www.w3.org/2000/svg">
<path d="M10.1303 7.55966L3.06366 0.492997C2.90872 0.336783 2.72439 0.212792 2.52129 0.128178C2.31819 0.0435633 2.10035 0 1.88033 0C1.66031 0 1.44247 0.0435633 1.23937 0.128178C1.03627 0.212792 0.851934 0.336783 0.696995 0.492997C0.386577 0.805268 0.212341 1.22769 0.212341 1.668C0.212341 2.10831 0.386577 2.53073 0.696995 2.843L6.597 8.743L0.696995 14.643C0.386577 14.9553 0.212341 15.3777 0.212341 15.818C0.212341 16.2583 0.386577 16.6807 0.696995 16.993C0.852729 17.1475 1.03742 17.2697 1.24048 17.3526C1.44355 17.4356 1.66098 17.4776 1.88033 17.4763C2.09967 17.4776 2.31711 17.4356 2.52017 17.3526C2.72324 17.2697 2.90793 17.1475 3.06366 16.993L10.1303 9.92633C10.2865 9.77139 10.4105 9.58706 10.4951 9.38396C10.5798 9.18086 10.6233 8.96302 10.6233 8.743C10.6233 8.52298 10.5798 8.30513 10.4951 8.10203C10.4105 7.89894 10.2865 7.7146 10.1303 7.55966Z" fill="black"/>
</svg>
