<svg width="21" height="17" viewBox="0 0 21 17" fill="none" xmlns="http://www.w3.org/2000/svg">
<path d="M20.801 1.9506C20.0493 2.2767 19.2544 2.49226 18.441 2.5906C19.2992 2.07792 19.9423 1.27138 20.251 0.3206C19.4445 0.800663 18.5618 1.1389 17.641 1.3206C17.0255 0.653172 16.206 0.208897 15.3108 0.0574517C14.4156 -0.0939932 13.4955 0.0559587 12.6948 0.48379C11.894 0.911621 11.2579 1.59313 10.8862 2.42144C10.5145 3.24974 10.4283 4.17799 10.641 5.0606C9.01042 4.97813 7.41544 4.55355 5.95965 3.81446C4.50386 3.07537 3.21984 2.03829 2.19099 0.7706C1.83013 1.40077 1.64051 2.11442 1.64099 2.8406C1.63972 3.51498 1.80521 4.17922 2.12275 4.77416C2.44029 5.36911 2.90001 5.87631 3.46099 6.2506C2.80897 6.23286 2.17088 6.0579 1.60099 5.7406V5.7906C1.60588 6.73549 1.93699 7.64969 2.53831 8.37857C3.13963 9.10744 3.97425 9.60624 4.90099 9.7906C4.54425 9.89917 4.17387 9.95641 3.80099 9.9606C3.54289 9.95759 3.28542 9.93418 3.03099 9.8906C3.2949 10.7034 3.80562 11.4137 4.49207 11.9228C5.17852 12.4318 6.00657 12.7142 6.861 12.7306C5.4182 13.8659 3.63688 14.4855 1.80099 14.4906C1.46673 14.4917 1.13273 14.4717 0.800995 14.4306C2.67542 15.6409 4.85981 16.2833 7.09099 16.2806C8.63069 16.2966 10.1581 16.0056 11.5841 15.4247C13.0101 14.8437 14.306 13.9845 15.3962 12.8971C16.4864 11.8097 17.349 10.516 17.9336 9.09151C18.5181 7.66702 18.813 6.14033 18.801 4.6006C18.801 4.4306 18.801 4.2506 18.801 4.0706C19.5857 3.48541 20.2625 2.76803 20.801 1.9506V1.9506Z" fill="#333"/>
</svg>
