<svg width="142" height="234" viewBox="0 0 142 234" fill="none" xmlns="http://www.w3.org/2000/svg">
<path d="M138.333 142.5C138.389 142.249 138.446 141.991 138.504 141.726C139.327 136.899 137.5 124.639 123.333 110C100.138 86.0316 20.3329 45 64.8329 0C59.3329 13 112.333 53 113.333 54.5C114.333 56 130.333 65 138.333 86C144.597 102.444 141.153 129.491 138.504 141.726C138.455 142.01 138.398 142.269 138.333 142.5Z" fill="#00C9AD"/>
<path d="M87.833 183C105.833 215 82.833 228 79.3329 233.5C81.2484 225 74.8329 215 63.3329 205C37.7153 182.724 -20.417 146 7.33292 90.5C5.43209 96.2025 8.37769 108.17 24.3329 123.5C49.8329 148 86.197 175.474 87.833 183Z" fill="#00C9AD"/>
<path d="M117.833 133.5C153.833 168 115.333 189.5 110.333 201.5C111.69 196.646 116.275 182.86 98.8329 163.5C72.8482 134.658 -19.9117 85.9211 31.8329 33.5C20.5731 49.1 84.6164 107 117.833 133.5Z" fill="#00C9AD"/>
</svg>
