<svg class="header_logoSvg__1GPcR header_isBlack__ulr2r" viewBox="0 0 131 31" xmlns="http://www.w3.org/2000/svg" aria-describedby="logo-title"><path d="M1.981 22.924v-9.718c0-1.278-.12-2.158-.36-2.648-.239-.49-.78-.936-1.621-1.338 1.664-.168 3.838-.61 6.528-1.335V22.92H1.98v.005zm30.603-7.416c-.007-2.047.631-3.767 1.915-5.157 1.285-1.39 2.879-2.203 4.782-2.438-1.25.932-1.876 3.481-1.876 7.655 0 4.173.607 6.706 1.821 7.61-1.919-.235-3.509-1.055-4.77-2.465-1.249-1.422-1.872-3.154-1.872-5.205zm10.558.056c0-1.832-.16-3.445-.486-4.835-.325-1.39-.795-2.33-1.417-2.82 1.922.235 3.524 1.048 4.805 2.438 1.28 1.39 1.919 3.11 1.919 5.157s-.631 3.784-1.892 5.201c-1.26 1.41-2.855 2.23-4.777 2.466 1.233-.916 1.848-3.453 1.848-7.607zm41.54-.984v-2.676c0-1.279-.239-2.218-.716-2.82-.478-.601-1.18-.964-2.1-1.083.608-.096 1.152-.14 1.63-.14 3.822 0 5.733 1.701 5.733 5.102v5.835c0 1.043.156 1.732.47 2.07.313.339.877.554 1.691.65-.49.497-1.108.912-1.856 1.238-.748.33-1.5.494-2.263.494-.772-.008-1.394-.23-1.872-.661-.478-.43-.717-1.071-.717-1.916v-6.092zm26.429 4.102v-9.67h-1.731c2.534-1.23 4.629-2.791 6.278-4.679v3.875h3.602v.804h-3.602v9.503c0 .792.211 1.41.638 1.852.415.442.936.665 1.566.665a3.78 3.78 0 0 0 1.747-.41c-.38.629-.96 1.206-1.747 1.732a4.523 4.523 0 0 1-2.565.788c-1.39 0-2.435-.346-3.14-1.043-.697-.7-1.046-1.84-1.046-3.417zm11.74-8.315c0 .533.278 1.02.83 1.45.556.433 1.237.832 2.052 1.198.814.346 1.613.729 2.397 1.143a6.09 6.09 0 0 1 2.024 1.704c.564.725.846 1.641.846 2.748 0 1.108-.443 2.075-1.332 2.904-.885.836-1.985 1.37-3.297 1.605 1.081-.554 1.618-1.446 1.606-2.677 0-.995-.917-1.891-2.745-2.692-.756-.33-1.52-.689-2.287-1.083a5.847 5.847 0 0 1-1.954-1.621c-.537-.685-.803-1.537-.803-2.553 0-1.015.364-1.931 1.096-2.748.741-.816 1.676-1.37 2.812-1.664-.83.497-1.245 1.262-1.245 2.286zM15.457 18.965c0 1.17.11 2.007.34 2.557.243.541.74 1.007 1.488 1.398h-4.617c-1.14 0-1.7-1.339-1.746-3.362h-.004v-6.91c0-.844-.239-1.517-.72-2.015a2.38 2.38 0 0 0-1.747-.76c-.286 0-.713.06-1.277.183A5.359 5.359 0 0 1 8.96 8.499a4.883 4.883 0 0 1 2.385-.614c1.19 0 2.177.387 2.952 1.163.776.777 1.163 2.012 1.163 3.712l-.004 6.205zm77.919 3.959v-9.718c0-1.278-.122-2.158-.36-2.648-.24-.49-.78-.936-1.622-1.338 1.664-.168 3.838-.61 6.528-1.335V22.92h-4.546v.005zm13.475-3.959c0 1.17.109 2.007.34 2.557.243.541.74 1.007 1.488 1.398h-4.617c-1.139 0-1.699-1.339-1.746-3.362h-.004v-6.91c0-.844-.239-1.517-.721-2.015a2.378 2.378 0 0 0-1.746-.76c-.286 0-.713.06-1.277.183a5.358 5.358 0 0 1 1.786-1.557 4.883 4.883 0 0 1 2.385-.614c1.19 0 2.177.387 2.952 1.163.776.777 1.163 2.012 1.163 3.712l-.003 6.205zm-51.053-6.99v11.06l.008 4.03c0 1.171.118 1.987.353 2.541.242.542.74 1.008 1.488 1.398h-4.782c-1.14 0-1.7-1.338-1.746-3.361h-.004l-.004-.558V13.198l-.008-1.203c0-1.17-.117-1.987-.352-2.54-.243-.542-.74-1.008-1.488-1.398h4.777c1.14 0 1.7 1.338 1.747 3.36h.004l.007.558zM73.8 3.919v12.94l.008 2.15c0 1.17.117 1.987.352 2.54.243.542.74 1.008 1.488 1.398h-4.777c-1.14 0-1.7-1.338-1.747-3.36h-.004l-.004-.558V5.138l-.007-1.203c0-1.171-.118-1.987-.353-2.541-.243-.542-.74-1.008-1.488-1.398h4.778c1.14 0 1.699 1.338 1.746 3.361h.004l.004.562zm4.108 9.315-.028-.044c-.477-.82-.603-1.597-.371-2.306.313-.967 1.288-1.804 2.897-2.489l.09-.036.024.096c.23.952.262 2.441-.42 3.505-.426.669-1.068 1.083-1.918 1.238a6.216 6.216 0 0 1-.227.036h-.047zm45.899 9.905-.094-.02c-1.7-.395-2.804-1.048-3.278-1.944-.349-.657-.356-1.441-.024-2.334l.02-.047.051-.004c.055-.004.211-.008.227-.008.862.004 1.566.302 2.099.884.85.928 1.073 2.401 1.006 3.377l-.007.096zm2.717-15.214.094.02c1.7.394 2.804 1.048 3.278 1.944.348.657.356 1.441.023 2.333l-.019.048-.051.004a6.527 6.527 0 0 1-.227.008c-.862-.004-1.567-.303-2.099-.884-.85-.928-1.073-2.401-1.007-3.377l.008-.096zM20.116 21.087c-1.178-1.45-1.766-3.19-1.766-5.22 0-2.032.572-3.8 1.72-5.31 1.143-1.5 2.58-2.38 4.299-2.644-.983.976-1.473 3.119-1.473 6.432 0 1.816.416 3.182 1.246 4.094.83.912 1.86 1.37 3.09 1.37a6.41 6.41 0 0 0 2.161-.358c.72-.251 1.288-.53 1.703-.84-1.421 3.082-3.477 4.627-6.167 4.639-2.032.004-3.634-.713-4.813-2.163z"/><path d="M23.719 15.102c.638.27 7.522.59 6.962-3.692 0 0-.41-3.039-4.84-3.497.705.558 1.32 1.868 1.32 3.286 0 1.187-.11 2.792-3.442 3.903zm34.006 8.108s3.536-2.198 3.622-7.49c.027-1.73-.337-3.131-1.01-4.202-.674-1.072-1.535-1.605-2.585-1.605-.38 0-.736.051-1.077.155 1.042-1.466 2.377-2.198 4.002-2.198 1.626 0 2.926.657 3.889 1.971.967 1.314 1.453 3.027 1.465 5.13 0 1.25-.236 2.381-.71 3.397-2.028 4.56-7.596 4.846-7.596 4.842zm25.798-8.586s-2.009 1.135-2.224 3.564c-.082.936.211 1.653.634 2.143.423.49.944.737 1.559.749.211 0 .391-.028.536-.084-1.026 1.521-2.306 2.282-3.837 2.282-.991 0-1.786-.319-2.385-.96-.603-.629-.909-1.49-.916-2.58 0-1.092.49-2.043 1.413-2.92 1.645-1.545 5.22-2.194 5.22-2.194z"/></svg>