<svg width="223" height="121" viewBox="0 0 223 121" fill="none" xmlns="http://www.w3.org/2000/svg">
<path d="M3 3.67133C59.5 -1.32868 60.8902 22.917 82.4585 32.8384C90.3667 36.4762 99.1344 38.6471 107.843 39.5637C117.511 40.5815 126.78 42.1713 136.5 42.1713C144.761 42.1713 153.671 42.4425 161.781 40.8681C168.5 39.5637 174.764 36.77 180.5 31.6713C185 27.6713 189.023 23.2388 193 17.6713C194.432 15.6667 197.5 10.6713 198.5 9.17133M130.969 117.645C123.128 111.029 121.831 102.468 127.447 95.0786C128.966 93.0803 135.665 88.238 135.665 92.9915C135.665 97.9956 134.953 97.6874 129.795 97.6874M142.709 82.4257C141.771 87.2332 141.535 91.6661 141.535 96.5134M150.927 96.5134C153.432 92.0243 154.448 88.6184 154.448 83.5996C154.448 79.9921 154.783 80.087 156.144 83.3387C157.445 86.4454 164.89 94.1966 160.318 95.3394M187.32 94.1655C185.07 89.7299 170.566 68.3611 178.711 63.7072C183.762 60.8208 192.238 62.468 197.755 62.468C202.506 62.468 207.419 62.1238 211.974 63.6419M183.798 80.0777L189.668 81.2517M197.886 89.4695C197.952 92.1938 198.355 94.0469 199.06 96.5134M196.712 82.4257C196.712 78.0363 195.667 69.7696 199.06 76.5557M215.496 84.7736C214.455 86.1473 212.981 87.553 211.711 88.9673M211.711 88.9673C210.86 89.9158 210.1 90.8683 209.626 91.8175M211.711 88.9673C209.813 86.8219 207.912 84.6724 206.104 82.4257M211.711 88.9673C214.225 91.8091 216.735 94.6437 219.017 97.6874" stroke="#A37AF5" stroke-width="6" stroke-linecap="round"/>
</svg>
